<?xml version="1.0" encoding="UTF-8"?>
<svg width="52px" height="52px" viewBox="0 0 52 52" version="1.1" xmlns="http://www.w3.org/2000/svg" xmlns:xlink="http://www.w3.org/1999/xlink">
    <!-- Generator: Sketch 63.1 (92452) - https://sketch.com -->
    <title>spa</title>
    <desc>Created with Sketch.</desc>
    <defs>
        <linearGradient x1="84.8004023%" y1="0%" x2="11.556358%" y2="117.064722%" id="linearGradient-1">
            <stop stop-color="#40EF51" offset="0%"></stop>
            <stop stop-color="#1E71DB" offset="100%"></stop>
        </linearGradient>
        <circle id="path-2" cx="26" cy="26" r="26"></circle>
    </defs>
    <g id="DDisnotDEADyet" stroke="none" stroke-width="1" fill="none" fill-rule="evenodd">
        <g id="Desktop" transform="translate(-166.000000, -158.000000)">
            <g id="Group-2" transform="translate(140.000000, 140.000000)">
                <g id="spa" transform="translate(26.000000, 18.000000)">
                    <mask id="mask-3" fill="white">
                        <use xlink:href="#path-2"></use>
                    </mask>
                    <use id="Mask" fill="url(#linearGradient-1)" xlink:href="#path-2"></use>
                    <path d="M37.6655257,22.0039512 C32.8823799,22.1170336 28.5821693,24.6495091 26.1249832,28.5796578 L26,28.784 L25.8750594,28.579644 C23.3606721,24.5580979 18.9166006,22 14,22 C13.7645029,22 13.5293533,22.0058234 13.2947096,22.0174147 C12.8494157,22.0394119 12.4724712,22.3535331 12.3705368,22.7875606 C12.1250973,23.8326199 12,24.9085271 12,26 C12,33.7319865 18.2680135,40 26,40 C33.7319865,40 40,33.7319865 40,26 C40,24.908557 39.8749095,23.8326546 39.6294974,22.7876417 C39.5275935,22.3537147 39.1508014,22.0396206 38.7056189,22.0174959 C38.4711599,22.0058437 38.2359052,22 38,22 L37.6655257,22.0039512 Z M37.833,24.002 L37.8582481,24.1488656 C37.952332,24.7569253 38,25.3751878 38,26 C38,32.627417 32.627417,38 26,38 C19.372583,38 14,32.627417 14,26 L14.0089186,25.5326673 C14.0267364,25.0666784 14.0711931,24.6048912 14.1417621,24.1488384 L14.167,24.002 L14,24 C18.8851147,24 23.2257591,26.945894 25.0773603,31.3768637 C25.4197064,32.1961143 26.5803915,32.1961059 26.9227257,31.3768502 C28.7339919,27.0422266 32.9273299,24.1287845 37.682197,24.0041616 L37.833,24.002 Z" id="Combined-Shape" fill="#FFFFFF" fill-rule="nonzero" mask="url(#mask-3)"></path>
                    <path d="M25.2614502,12.3235162 C25.6698145,11.8789484 26.3759805,11.8948019 26.7639822,12.3572483 L27.7282777,13.5071902 L28.1257574,13.993214 C28.3108029,14.2229548 28.4774482,14.4356408 28.6353294,14.6441056 C30.2450148,16.7695199 31,18.6126428 31,20.9999978 C31,21.5522847 30.5522847,21.9999978 30,21.9999978 C29.4477153,21.9999978 29,21.5522847 29,20.9999978 C29,19.1014373 28.4083558,17.6570737 27.0409729,15.8515938 C26.8464142,15.5947002 26.6344915,15.3271681 26.3837355,15.0206483 L25.965,14.516 L25.4797367,15.0605433 C25.4036634,15.1476223 25.3337554,15.2289525 25.265869,15.3092511 L24.9917867,15.6404269 C23.5837788,17.3729817 23,18.8184724 23,20.9862594 C23,21.5385442 22.5522847,21.9862594 22,21.9862594 C21.4477153,21.9862594 21,21.5385442 21,20.9862594 C21,18.4413787 21.6938304,16.612743 23.2256072,14.6479292 L23.5945775,14.1900644 C23.9736303,13.7318424 24.3194703,13.3490071 25.2614502,12.3235162 Z" id="Path" fill="#FFFFFF" fill-rule="nonzero" mask="url(#mask-3)"></path>
                </g>
            </g>
        </g>
    </g>
</svg>