<?xml version="1.0" encoding="UTF-8"?>
<svg width="78px" height="78px" viewBox="0 0 78 78" version="1.1" xmlns="http://www.w3.org/2000/svg" xmlns:xlink="http://www.w3.org/1999/xlink">
    <!-- Generator: Sketch 63.1 (92452) - https://sketch.com -->
    <title>favicon</title>
    <desc>Created with Sketch.</desc>
    <g id="DDisnotDEADyet" stroke="none" stroke-width="1" fill="none" fill-rule="evenodd">
        <g id="favicon" fill="#000000" fill-rule="nonzero">
            <g id="icon">
                <path d="M71.3045327,27.9340186 C58.0588982,28.2471701 46.1506226,35.260179 39.3461075,46.1436677 L39,46.7095385 L38.6540106,46.1436296 C31.6910919,35.0070402 19.3844323,27.9230769 5.76923077,27.9230769 C5.1170849,27.9230769 4.46590154,27.9392033 3.81611884,27.9713021 C2.58299724,28.0322175 1.53915101,28.9020916 1.25687111,30.1040141 C0.577192557,32.9980243 0.230769231,35.9774598 0.230769231,39 C0.230769231,60.4116549 17.5883451,77.7692308 39,77.7692308 C60.4116549,77.7692308 77.7692308,60.4116549 77.7692308,39 C77.7692308,35.9775425 77.4228263,32.9981206 76.7432235,30.1042385 C76.4610281,28.9025946 75.417604,28.0327955 74.1847907,27.971527 C73.5355196,27.9392594 72.8840453,27.9230769 72.2307692,27.9230769 L71.3045327,27.9340186 Z M71.7683077,33.4670769 L71.8382254,33.8737815 C72.0987656,35.5576392 72.2307692,37.2697508 72.2307692,39 C72.2307692,57.3528471 57.3528471,72.2307692 39,72.2307692 C20.6471529,72.2307692 5.76923077,57.3528471 5.76923077,39 L5.79392854,37.705848 C5.84327007,36.4154172 5.96638088,35.1366218 6.16180286,33.8737064 L6.23169231,33.4670769 L5.76923077,33.4615385 C19.2972407,33.4615385 31.3174867,41.6193987 36.4449977,53.8897764 C37.3930332,56.1584704 40.6072379,56.158447 41.5552403,53.8897391 C46.5710544,41.8861658 58.1833752,33.8181724 71.3506992,33.4730629 L71.7683077,33.4670769 Z" id="Combined-Shape"></path>
                <path d="M36.9547851,1.12666012 C38.08564,-0.104450686 40.0411769,-0.0605485256 41.115643,1.22007214 L43.7859999,4.40452677 L44.8867129,5.75043885 C45.3991466,6.3866441 45.8606259,6.97562075 46.2978351,7.5529079 C50.7554257,13.4386704 52.8461538,18.5427031 52.8461538,25.1538462 C52.8461538,26.6832501 51.606327,27.9230709 50.0769231,27.9230709 C48.5475192,27.9230709 47.3076923,26.6832501 47.3076923,25.1538462 C47.3076923,19.896288 45.6692929,15.8965119 41.8826942,10.8967212 C41.3439162,10.1853235 40.7570534,9.44446544 40.0626522,8.5956414 L38.9030769,7.19815385 L37.5592708,8.70611987 C37.3486064,8.94726179 37.1550151,9.17248381 36.9670219,9.39484922 L36.2080246,10.3119513 C32.3089259,15.1097953 30.6923077,19.1126927 30.6923077,25.1157954 C30.6923077,26.6451993 29.4524808,27.8850261 27.9230769,27.8850261 C26.393673,27.8850261 25.1538462,26.6451993 25.1538462,25.1157954 C25.1538462,18.0684333 27.0752226,13.004519 31.3170662,7.5634962 L32.3388301,6.29556305 C33.3885147,5.02664055 34.3462255,3.96648132 36.9547851,1.12666012 Z" id="Path"></path>
            </g>
        </g>
    </g>
</svg>